<?xml version="1.0" encoding="utf-8"?>
<!-- Generator: Adobe Illustrator 23.0.5, SVG Export Plug-In . SVG Version: 6.00 Build 0)  -->
<svg version="1.1" id="Layer_1" xmlns="http://www.w3.org/2000/svg" xmlns:xlink="http://www.w3.org/1999/xlink" x="0px" y="0px"
	 viewBox="0 0 288 560" style="enable-background:new 0 0 288 560;" xml:space="preserve">
<style type="text/css">
	.st0{fill:#FFFFFF;}
</style>
<g>
	<g>
		<g>
			<g>
				<ellipse class="st0" cx="144.5" cy="288.22" rx="13.69" ry="14.04"/>
			</g>
			<g>
				<path class="st0" d="M144.5,320.8c-17.53,0-31.78-14.62-31.78-32.58s14.26-32.58,31.78-32.58c17.53,0,31.78,14.62,31.78,32.58
					h-2.29c0-16.67-13.23-30.23-29.49-30.23s-29.49,13.56-29.49,30.23c0,16.67,13.23,30.23,29.49,30.23V320.8z"/>
			</g>
			<g>
				<path class="st0" d="M144.5,310.46c-11.96,0-21.69-9.98-21.69-22.24h2.29c0,10.97,8.7,19.89,19.4,19.89
					c10.7,0,19.4-8.92,19.4-19.89s-8.7-19.89-19.4-19.89v-2.35c11.96,0,21.7,9.98,21.7,22.24
					C166.19,300.48,156.46,310.46,144.5,310.46z"/>
			</g>
			<g>
				<ellipse class="st0" cx="197.6" cy="206.68" rx="7.47" ry="7.66"/>
			</g>
			<g>
				<ellipse class="st0" cx="90.72" cy="206.68" rx="7.47" ry="7.66"/>
			</g>
			<g>
				<ellipse class="st0" cx="90.72" cy="370.88" rx="7.47" ry="7.66"/>
			</g>
			<g>
				<ellipse class="st0" cx="197.6" cy="370.88" rx="7.47" ry="7.66"/>
			</g>
			<g>
				<g>
					<ellipse class="st0" cx="144.5" cy="226.81" rx="10.75" ry="11.02"/>
				</g>
				<g>
					<ellipse class="st0" cx="144.5" cy="349.62" rx="10.75" ry="11.02"/>
				</g>
				<g>
					<ellipse class="st0" cx="197.6" cy="316.6" rx="10.75" ry="11.02"/>
				</g>
				<g>
					<ellipse class="st0" cx="197.6" cy="259.96" rx="10.75" ry="11.02"/>
				</g>
				<g>
					<ellipse class="st0" cx="90.72" cy="259.96" rx="10.75" ry="11.02"/>
				</g>
				<g>
					<ellipse class="st0" cx="90.72" cy="315.18" rx="10.75" ry="11.02"/>
				</g>
				<g>
					<ellipse class="st0" cx="36.25" cy="288.22" rx="7.47" ry="7.66"/>
				</g>
				<g>
					<ellipse class="st0" cx="251.75" cy="288.22" rx="7.47" ry="7.66"/>
				</g>
				<g>
					<g>
						<path class="st0" d="M144.5,351.74L32.51,288.22l111.99-63.53l110.96,63.53L144.5,351.74z M39.99,288.22l104.5,59.28
							l103.54-59.28l-103.54-59.28L39.99,288.22z"/>
					</g>
				</g>
			</g>
			<g>
				<g>
					<polygon class="st0" points="144.5,230.73 90.04,208.41 91.39,204.96 144.49,226.73 196.92,204.96 198.28,208.4 					"/>
				</g>
			</g>
			<g>
				<g>
					<polygon class="st0" points="91.37,372.61 90.06,369.15 144.5,347.63 198.26,369.15 196.94,372.6 144.49,351.61 					"/>
				</g>
			</g>
			<g>
				<ellipse class="st0" cx="47.55" cy="228.73" rx="14.03" ry="14.38"/>
			</g>
			<g>
				<ellipse class="st0" cx="144" cy="180.84" rx="14.03" ry="14.38"/>
			</g>
			<g>
				<ellipse class="st0" cx="144.16" cy="395.6" rx="14.03" ry="14.38"/>
			</g>
			<g>
				<ellipse class="st0" cx="240.38" cy="228.73" rx="14.03" ry="14.38"/>
			</g>
			<g>
				<ellipse class="st0" cx="47.74" cy="349.62" rx="14.03" ry="14.38"/>
			</g>
			<g>
				<ellipse class="st0" cx="240.57" cy="349.62" rx="14.03" ry="14.38"/>
			</g>
		</g>
	</g>
</g>
</svg>
